<svg width="55" height="55" viewBox="0 0 55 55" fill="none" xmlns="http://www.w3.org/2000/svg">
<g clip-path="url(#clip0)">
<path d="M27.9844 9.47162V17.9746H47.2082L51.4596 13.7231L47.2082 9.47162H32.1821V0H25.4013V2.58317H17.5979V4.19765H25.4013V9.47162H8.46061L5.82362 6.83464L8.46061 4.19765H15.8758V2.58317H7.79199L3.54053 6.83464L7.79199 11.0861H25.4013V16.3601H7.79199L3.54053 20.6115L7.79199 24.863H25.4013V53.3855H18.459V55H39.1243V53.3855H32.1821V19.7505H30.5676V53.3855H27.0157V1.61448H30.5676V9.47162H27.9844ZM8.46061 23.2485L5.82362 20.6115L8.46061 17.9746H25.4013V23.2485H8.46061ZM49.1765 13.7231L46.5395 16.3601H29.5989V11.0861H46.5395L49.1765 13.7231Z" fill="white"/>
<path d="M33.958 12.9158H35.6801V14.5303H33.958V12.9158Z" fill="white"/>
<path d="M40.8464 12.9158H42.5685V14.5303H40.8464V12.9158Z" fill="white"/>
<path d="M37.4021 12.9158H39.1242V14.5303H37.4021V12.9158Z" fill="white"/>
<path d="M12.4316 6.0274H14.1538V7.64188H12.4316V6.0274Z" fill="white"/>
<path d="M19.3201 6.0274H21.0422V7.64188H19.3201V6.0274Z" fill="white"/>
<path d="M15.8757 6.0274H17.5978V7.64188H15.8757V6.0274Z" fill="white"/>
<path d="M12.4316 19.8043H14.1538V21.4188H12.4316V19.8043Z" fill="white"/>
<path d="M19.3201 19.8043H21.0422V21.4188H19.3201V19.8043Z" fill="white"/>
<path d="M15.8757 19.8043H17.5978V21.4188H15.8757V19.8043Z" fill="white"/>
</g>
<defs>
<clipPath id="clip0">
<rect width="55" height="55" fill="white"/>
</clipPath>
</defs>
</svg>
